<svg xmlns="http://www.w3.org/2000/svg" xmlns:xlink="http://www.w3.org/1999/xlink" contentStyleType="text/css" data-diagram-type="DESCRIPTION" height="567px" preserveAspectRatio="none" style="width:1517px;height:567px;background:#FFFFFF;" version="1.1" viewBox="0 0 1517 567" width="1517px" zoomAndPan="magnify"><defs/><g><!--cluster Web Interface--><g class="cluster" data-entity="Web Interface" data-source-line="2" data-uid="ent0002" id="cluster_Web Interface"><path d="M752.39,6 L851.9027,6 A3.75,3.75 0 0 1 854.4027,8.5 L861.4027,28.4883 L935.39,28.4883 A2.5,2.5 0 0 1 937.89,30.9883 L937.89,117.48 A2.5,2.5 0 0 1 935.39,119.98 L752.39,119.98 A2.5,2.5 0 0 1 749.89,117.48 L749.89,8.5 A2.5,2.5 0 0 1 752.39,6" fill="none" style="stroke:#000000;stroke-width:1.5;"/><line style="stroke:#000000;stroke-width:1.5;" x1="749.89" x2="861.4027" y1="28.4883" y2="28.4883"/><text fill="#000000" font-family="sans-serif" font-size="14" font-weight="bold" lengthAdjust="spacing" textLength="98.5127" x="753.89" y="21.5352">Web Interface</text></g><!--cluster Model Serving--><g class="cluster" data-entity="Model Serving" data-source-line="6" data-uid="ent0004" id="cluster_Model Serving"><path d="M509.39,168.98 L612.5394,168.98 A3.75,3.75 0 0 1 615.0394,171.48 L622.0394,191.4683 L779.39,191.4683 A2.5,2.5 0 0 1 781.89,193.9683 L781.89,395.45 A2.5,2.5 0 0 1 779.39,397.95 L509.39,397.95 A2.5,2.5 0 0 1 506.89,395.45 L506.89,171.48 A2.5,2.5 0 0 1 509.39,168.98" fill="none" style="stroke:#000000;stroke-width:1.5;"/><line style="stroke:#000000;stroke-width:1.5;" x1="506.89" x2="622.0394" y1="191.4683" y2="191.4683"/><text fill="#000000" font-family="sans-serif" font-size="14" font-weight="bold" lengthAdjust="spacing" textLength="102.1494" x="510.89" y="184.5152">Model Serving</text></g><!--cluster mlflow--><g class="cluster" data-entity="mlflow" data-source-line="7" data-uid="ent0005" id="cluster_mlflow"><rect fill="none" height="145.97" rx="2.5" ry="2.5" style="stroke:#181818;stroke-width:1;" width="211" x="538.89" y="219.98"/><rect fill="none" height="10" style="stroke:#181818;stroke-width:1;" width="15" x="729.89" y="224.98"/><rect fill="none" height="2" style="stroke:#181818;stroke-width:1;" width="4" x="727.89" y="226.98"/><rect fill="none" height="2" style="stroke:#181818;stroke-width:1;" width="4" x="727.89" y="230.98"/><text fill="#000000" font-family="sans-serif" font-size="14" font-style="italic" lengthAdjust="spacing" textLength="110.1953" x="589.2923" y="246.5152">&#171;Model Serving&#187;</text><text fill="#000000" font-family="sans-serif" font-size="14" font-weight="bold" lengthAdjust="spacing" textLength="102.2793" x="593.2504" y="263.0034">MLflow Server</text></g><!--cluster Models--><g class="cluster" data-entity="Models" data-source-line="12" data-uid="ent0007" id="cluster_Models"><path d="M197.39,446.95 L249.9877,446.95 A3.75,3.75 0 0 1 252.4877,449.45 L259.4877,469.4383 L770.39,469.4383 A2.5,2.5 0 0 1 772.89,471.9383 L772.89,558.43 A2.5,2.5 0 0 1 770.39,560.93 L197.39,560.93 A2.5,2.5 0 0 1 194.89,558.43 L194.89,449.45 A2.5,2.5 0 0 1 197.39,446.95" fill="none" style="stroke:#000000;stroke-width:1.5;"/><line style="stroke:#000000;stroke-width:1.5;" x1="194.89" x2="259.4877" y1="469.4383" y2="469.4383"/><text fill="#000000" font-family="sans-serif" font-size="14" font-weight="bold" lengthAdjust="spacing" textLength="51.5977" x="198.89" y="462.4852">Models</text></g><!--cluster Database--><g class="cluster" data-entity="Database" data-source-line="18" data-uid="ent0011" id="cluster_Database"><path d="M1070.39,446.95 L1138.2523,446.95 A3.75,3.75 0 0 1 1140.7523,449.45 L1147.7523,469.4383 L1247.39,469.4383 A2.5,2.5 0 0 1 1249.89,471.9383 L1249.89,558.43 A2.5,2.5 0 0 1 1247.39,560.93 L1070.39,560.93 A2.5,2.5 0 0 1 1067.89,558.43 L1067.89,449.45 A2.5,2.5 0 0 1 1070.39,446.95" fill="none" style="stroke:#000000;stroke-width:1.5;"/><line style="stroke:#000000;stroke-width:1.5;" x1="1067.89" x2="1147.7523" y1="469.4383" y2="469.4383"/><text fill="#000000" font-family="sans-serif" font-size="14" font-weight="bold" lengthAdjust="spacing" textLength="66.8623" x="1071.89" y="462.4852">Database</text></g><!--cluster Data Processing--><g class="cluster" data-entity="Data Processing" data-source-line="22" data-uid="ent0013" id="cluster_Data Processing"><path d="M808.39,243.98 L925.6009,243.98 A3.75,3.75 0 0 1 928.1009,246.48 L935.1009,266.4683 L1031.39,266.4683 A2.5,2.5 0 0 1 1033.89,268.9683 L1033.89,355.45 A2.5,2.5 0 0 1 1031.39,357.95 L808.39,357.95 A2.5,2.5 0 0 1 805.89,355.45 L805.89,246.48 A2.5,2.5 0 0 1 808.39,243.98" fill="none" style="stroke:#000000;stroke-width:1.5;"/><line style="stroke:#000000;stroke-width:1.5;" x1="805.89" x2="935.1009" y1="266.4683" y2="266.4683"/><text fill="#000000" font-family="sans-serif" font-size="14" font-weight="bold" lengthAdjust="spacing" textLength="116.2109" x="809.89" y="259.5152">Data Processing</text></g><!--entity flask--><g class="entity" data-entity="flask" data-source-line="3" data-uid="ent0003" id="entity_flask"><rect fill="#F1F1F1" height="62.9766" rx="2.5" ry="2.5" style="stroke:#181818;stroke-width:0.5;" width="155.8828" x="765.95" y="41"/><rect fill="#F1F1F1" height="10" style="stroke:#181818;stroke-width:0.5;" width="15" x="901.8328" y="46"/><rect fill="#F1F1F1" height="2" style="stroke:#181818;stroke-width:0.5;" width="4" x="899.8328" y="48"/><rect fill="#F1F1F1" height="2" style="stroke:#181818;stroke-width:0.5;" width="4" x="899.8328" y="52"/><text fill="#000000" font-family="sans-serif" font-size="14" font-style="italic" lengthAdjust="spacing" textLength="74.9697" x="801.4065" y="74.5352">&#171;Web App&#187;</text><text fill="#000000" font-family="sans-serif" font-size="14" lengthAdjust="spacing" textLength="115.8828" x="780.95" y="91.0234">Flask Application</text></g><!--entity rag_model--><g class="entity" data-entity="rag_model" data-source-line="8" data-uid="ent0006" id="entity_rag_model"><rect fill="#F1F1F1" height="62.9766" rx="2.5" ry="2.5" style="stroke:#181818;stroke-width:0.5;" width="143.1035" x="563.34" y="278.98"/><rect fill="#F1F1F1" height="10" style="stroke:#181818;stroke-width:0.5;" width="15" x="686.4435" y="283.98"/><rect fill="#F1F1F1" height="2" style="stroke:#181818;stroke-width:0.5;" width="4" x="684.4435" y="285.98"/><rect fill="#F1F1F1" height="2" style="stroke:#181818;stroke-width:0.5;" width="4" x="684.4435" y="289.98"/><text fill="#000000" font-family="sans-serif" font-size="14" font-style="italic" lengthAdjust="spacing" textLength="101.1035" x="579.34" y="312.5152">&#171;Python Class&#187;</text><text fill="#000000" font-family="sans-serif" font-size="14" lengthAdjust="spacing" textLength="74.375" x="592.7043" y="329.0034">RAG Model</text></g><!--entity embedding_model--><g class="entity" data-entity="embedding_model" data-source-line="13" data-uid="ent0008" id="entity_embedding_model"><rect fill="#F1F1F1" height="62.9766" rx="2.5" ry="2.5" style="stroke:#181818;stroke-width:0.5;" width="213.1719" x="543.31" y="481.95"/><rect fill="#F1F1F1" height="10" style="stroke:#181818;stroke-width:0.5;" width="15" x="736.4819" y="486.95"/><rect fill="#F1F1F1" height="2" style="stroke:#181818;stroke-width:0.5;" width="4" x="734.4819" y="488.95"/><rect fill="#F1F1F1" height="2" style="stroke:#181818;stroke-width:0.5;" width="4" x="734.4819" y="492.95"/><text fill="#000000" font-family="sans-serif" font-size="14" font-style="italic" lengthAdjust="spacing" textLength="171.1719" x="559.31" y="515.4852">&#171;Sentence Transformers&#187;</text><text fill="#000000" font-family="sans-serif" font-size="14" lengthAdjust="spacing" textLength="122.1035" x="583.8442" y="531.9734">Embedding Model</text></g><!--entity reranker_model--><g class="entity" data-entity="reranker_model" data-source-line="14" data-uid="ent0009" id="entity_reranker_model"><rect fill="#F1F1F1" height="62.9766" rx="2.5" ry="2.5" style="stroke:#181818;stroke-width:0.5;" width="149.3447" x="211.22" y="481.95"/><rect fill="#F1F1F1" height="10" style="stroke:#181818;stroke-width:0.5;" width="15" x="340.5647" y="486.95"/><rect fill="#F1F1F1" height="2" style="stroke:#181818;stroke-width:0.5;" width="4" x="338.5647" y="488.95"/><rect fill="#F1F1F1" height="2" style="stroke:#181818;stroke-width:0.5;" width="4" x="338.5647" y="492.95"/><text fill="#000000" font-family="sans-serif" font-size="14" font-style="italic" lengthAdjust="spacing" textLength="107.3447" x="227.22" y="515.4852">&#171;CrossEncoder&#187;</text><text fill="#000000" font-family="sans-serif" font-size="14" lengthAdjust="spacing" textLength="106.2578" x="227.7635" y="531.9734">Reranker Model</text></g><!--entity llm_model--><g class="entity" data-entity="llm_model" data-source-line="15" data-uid="ent0010" id="entity_llm_model"><rect fill="#F1F1F1" height="62.9766" rx="2.5" ry="2.5" style="stroke:#181818;stroke-width:0.5;" width="112.7344" x="395.53" y="481.95"/><rect fill="#F1F1F1" height="10" style="stroke:#181818;stroke-width:0.5;" width="15" x="488.2644" y="486.95"/><rect fill="#F1F1F1" height="2" style="stroke:#181818;stroke-width:0.5;" width="4" x="486.2644" y="488.95"/><rect fill="#F1F1F1" height="2" style="stroke:#181818;stroke-width:0.5;" width="4" x="486.2644" y="492.95"/><text fill="#000000" font-family="sans-serif" font-size="14" font-style="italic" lengthAdjust="spacing" textLength="54.7148" x="419.5398" y="515.4852">&#171;Llama&#187;</text><text fill="#000000" font-family="sans-serif" font-size="14" lengthAdjust="spacing" textLength="72.7344" x="410.53" y="531.9734">LLM Model</text></g><!--entity vector_db--><g class="entity" data-entity="vector_db" data-source-line="19" data-uid="ent0012" id="entity_vector_db"><rect fill="#F1F1F1" height="62.9766" rx="2.5" ry="2.5" style="stroke:#181818;stroke-width:0.5;" width="150.7832" x="1083.5" y="481.95"/><rect fill="#F1F1F1" height="10" style="stroke:#181818;stroke-width:0.5;" width="15" x="1214.2832" y="486.95"/><rect fill="#F1F1F1" height="2" style="stroke:#181818;stroke-width:0.5;" width="4" x="1212.2832" y="488.95"/><rect fill="#F1F1F1" height="2" style="stroke:#181818;stroke-width:0.5;" width="4" x="1212.2832" y="492.95"/><text fill="#000000" font-family="sans-serif" font-size="14" font-style="italic" lengthAdjust="spacing" textLength="61.7422" x="1123.0205" y="515.4852">&#171;Qdrant&#187;</text><text fill="#000000" font-family="sans-serif" font-size="14" lengthAdjust="spacing" textLength="110.7832" x="1098.5" y="531.9734">Vector Database</text></g><!--entity ingestion_pipeline--><g class="entity" data-entity="ingestion_pipeline" data-source-line="23" data-uid="ent0014" id="entity_ingestion_pipeline"><rect fill="#F1F1F1" height="62.9766" rx="2.5" ry="2.5" style="stroke:#181818;stroke-width:0.5;" width="195.9824" x="821.9" y="278.98"/><rect fill="#F1F1F1" height="10" style="stroke:#181818;stroke-width:0.5;" width="15" x="997.8824" y="283.98"/><rect fill="#F1F1F1" height="2" style="stroke:#181818;stroke-width:0.5;" width="4" x="995.8824" y="285.98"/><rect fill="#F1F1F1" height="2" style="stroke:#181818;stroke-width:0.5;" width="4" x="995.8824" y="289.98"/><text fill="#000000" font-family="sans-serif" font-size="14" font-style="italic" lengthAdjust="spacing" textLength="67.6484" x="881.067" y="312.5152">&#171;Pipeline&#187;</text><text fill="#000000" font-family="sans-serif" font-size="14" lengthAdjust="spacing" textLength="155.9824" x="836.9" y="329.0034">Data Ingestion Pipeline</text></g><g class="entity" data-entity="GMN23" data-source-line="37" data-uid="ent0024" id="entity_GMN23"><path d="M502.82,59.83 L502.82,85.1405 A0,0 0 0 0 502.82,85.1405 L730.9758,85.1405 A0,0 0 0 0 730.9758,85.1405 L730.9758,77.83 L765.59,72.49 L730.9758,69.83 L730.9758,69.83 L720.9758,59.83 L502.82,59.83 A0,0 0 0 0 502.82,59.83" fill="#FEFFDD" style="stroke:#181818;stroke-width:0.5;"/><path d="M720.9758,59.83 L720.9758,69.83 L730.9758,69.83 L720.9758,59.83" fill="#FEFFDD" style="stroke:#181818;stroke-width:0.5;"/><text fill="#000000" font-family="sans-serif" font-size="13" lengthAdjust="spacing" textLength="207.1558" x="508.82" y="77.3984">"User interacts via web interface"</text></g><g class="entity" data-entity="GMN26" data-source-line="38" data-uid="ent0027" id="entity_GMN26"><path d="M1285.67,297.81 L1285.67,323.1205 L1510.1124,323.1205 L1510.1124,307.81 L1500.1124,297.81 L1285.67,297.81" fill="#FEFFDD" style="stroke:#181818;stroke-width:0.5;"/><path d="M1500.1124,297.81 L1500.1124,307.81 L1510.1124,307.81 L1500.1124,297.81" fill="#FEFFDD" style="stroke:#181818;stroke-width:1;"/><text fill="#000000" font-family="sans-serif" font-size="13" lengthAdjust="spacing" textLength="203.4424" x="1291.67" y="315.3784">"Serves RAG Model via REST API"</text></g><g class="entity" data-entity="GMN29" data-source-line="39" data-uid="ent0030" id="entity_GMN29"><path d="M6,500.79 L6,526.1005 L175.7891,526.1005 L175.7891,510.79 L165.7891,500.79 L6,500.79" fill="#FEFFDD" style="stroke:#181818;stroke-width:0.5;"/><path d="M165.7891,500.79 L165.7891,510.79 L175.7891,510.79 L165.7891,500.79" fill="#FEFFDD" style="stroke:#181818;stroke-width:1;"/><text fill="#000000" font-family="sans-serif" font-size="13" lengthAdjust="spacing" textLength="148.7891" x="12" y="518.3584">"Implements RAG logic"</text></g><g class="entity" data-entity="GMN32" data-source-line="40" data-uid="ent0033" id="entity_GMN32"><path d="M1056.64,297.81 L1056.64,323.1205 A0,0 0 0 0 1056.64,323.1205 L1150.19,323.1205 L1158.13,481.53 L1158.19,323.1205 L1251.1405,323.1205 A0,0 0 0 0 1251.1405,323.1205 L1251.1405,307.81 L1241.1405,297.81 L1056.64,297.81 A0,0 0 0 0 1056.64,297.81" fill="#FEFFDD" style="stroke:#181818;stroke-width:0.5;"/><path d="M1241.1405,297.81 L1241.1405,307.81 L1251.1405,307.81 L1241.1405,297.81" fill="#FEFFDD" style="stroke:#181818;stroke-width:0.5;"/><text fill="#000000" font-family="sans-serif" font-size="13" lengthAdjust="spacing" textLength="173.5005" x="1062.64" y="315.3784">"Stores vector embeddings"</text></g><g class="entity" data-entity="GMN35" data-source-line="41" data-uid="ent0036" id="entity_GMN35"><path d="M791.32,500.79 L791.32,526.1005 A0,0 0 0 0 791.32,526.1005 L1048.4655,526.1005 A0,0 0 0 0 1048.4655,526.1005 L1048.4655,510.79 L1038.4655,500.79 L923.89,500.79 L919.89,342.43 L915.89,500.79 L791.32,500.79 A0,0 0 0 0 791.32,500.79" fill="#FEFFDD" style="stroke:#181818;stroke-width:0.5;"/><path d="M1038.4655,500.79 L1038.4655,510.79 L1048.4655,510.79 L1038.4655,500.79" fill="#FEFFDD" style="stroke:#181818;stroke-width:0.5;"/><text fill="#000000" font-family="sans-serif" font-size="13" lengthAdjust="spacing" textLength="236.1455" x="797.32" y="518.3584">"Processes PDFs and indexes vectors"</text></g><!--link flask to mlflow--><g class="link" data-entity-1="flask" data-entity-2="mlflow" data-source-line="27" data-uid="lnk15" id="link_flask_mlflow"><path d="M830.51,104.25 C823.22,121.02 814.05,142.13 805.89,160.98 C791.845,193.44 776.1225,229.9175 763.7763,258.595 C760.6897,265.7644 757.8141,272.4462 755.2286,278.456 C753.9358,281.4608 752.7155,284.2977 751.5776,286.9434 C751.0086,288.2662 752.8306,284.0294 752.3041,285.2538" fill="none" id="flask-to-mlflow" style="stroke:#181818;stroke-width:1;"/><polygon fill="#181818" points="749.9337,290.7657,757.1639,284.078,751.909,286.1724,749.8146,280.9176,749.9337,290.7657" style="stroke:#181818;stroke-width:1;"/><text fill="#000000" font-family="sans-serif" font-size="13" lengthAdjust="spacing" textLength="33.1792" x="817.31" y="149.5484">HTTP</text></g><!--link rag_model to vector_db--><g class="link" data-entity-1="rag_model" data-entity-2="vector_db" data-source-line="28" data-uid="lnk16" id="link_rag_model_vector_db"><path d="M650.68,342.24 C663.67,364.08 684.26,391.92 710.89,405.95 C731.4,416.76 791.8,411.92 814.89,413.95 C828.85,415.19 1052.9,433.7 1065.89,438.95 C1089.55,448.51 1107.6851,461.9978 1124.6651,477.5478" fill="none" id="rag_model-to-vector_db" style="stroke:#181818;stroke-width:1;"/><polygon fill="#181818" points="1129.09,481.6,1125.1542,472.5718,1125.4026,478.2231,1119.7512,478.4716,1129.09,481.6" style="stroke:#181818;stroke-width:1;"/><text fill="#000000" font-family="sans-serif" font-size="13" lengthAdjust="spacing" textLength="28.5645" x="1003.39" y="427.5184">uses</text></g><!--link rag_model to embedding_model--><g class="link" data-entity-1="rag_model" data-entity-2="embedding_model" data-source-line="29" data-uid="lnk17" id="link_rag_model_embedding_model"><path d="M637.21,342.43 C640.03,380.3 644.3429,438.0467 647.1629,475.7867" fill="none" id="rag_model-to-embedding_model" style="stroke:#181818;stroke-width:1;"/><polygon fill="#181818" points="647.61,481.77,650.9283,472.497,647.2374,476.7839,642.9505,473.0931,647.61,481.77" style="stroke:#181818;stroke-width:1;"/><text fill="#000000" font-family="sans-serif" font-size="13" lengthAdjust="spacing" textLength="28.5645" x="644.74" y="427.5184">uses</text></g><!--link rag_model to reranker_model--><g class="link" data-entity-1="rag_model" data-entity-2="reranker_model" data-source-line="30" data-uid="lnk18" id="link_rag_model_reranker_model"><path d="M562.88,342.19 C510.09,365.88 437.54,400.95 377.89,438.95 C358.07,451.58 342.0957,463.8545 325.4357,477.7645" fill="none" id="rag_model-to-reranker_model" style="stroke:#181818;stroke-width:1;"/><polygon fill="#181818" points="320.83,481.61,330.3022,478.9123,324.6681,478.4055,325.1749,472.7714,320.83,481.61" style="stroke:#181818;stroke-width:1;"/><text fill="#000000" font-family="sans-serif" font-size="13" lengthAdjust="spacing" textLength="28.5645" x="419.09" y="427.5184">uses</text></g><!--link rag_model to llm_model--><g class="link" data-entity-1="rag_model" data-entity-2="llm_model" data-source-line="31" data-uid="lnk19" id="link_rag_model_llm_model"><path d="M606.7,342.43 C572.21,380.3 518.23,439.5939 483.86,477.3339" fill="none" id="rag_model-to-llm_model" style="stroke:#181818;stroke-width:1;"/><polygon fill="#181818" points="479.82,481.77,488.8373,477.8092,483.1866,478.0733,482.9225,472.4226,479.82,481.77" style="stroke:#181818;stroke-width:1;"/><text fill="#000000" font-family="sans-serif" font-size="13" lengthAdjust="spacing" textLength="28.5645" x="538.91" y="427.5184">uses</text></g><!--link ingestion_pipeline to embedding_model--><g class="link" data-entity-1="ingestion_pipeline" data-entity-2="embedding_model" data-source-line="32" data-uid="lnk20" id="link_ingestion_pipeline_embedding_model"><path d="M878.3,342.43 C827.41,380.3 746.6133,440.4478 695.9033,478.1878" fill="none" id="ingestion_pipeline-to-embedding_model" style="stroke:#181818;stroke-width:1;"/><polygon fill="#181818" points="691.09,481.77,700.6981,479.6056,695.1011,478.7848,695.9218,473.1878,691.09,481.77" style="stroke:#181818;stroke-width:1;"/><text fill="#000000" font-family="sans-serif" font-size="13" lengthAdjust="spacing" textLength="28.5645" x="777.8" y="427.5184">uses</text></g><!--link ingestion_pipeline to vector_db--><g class="link" data-entity-1="ingestion_pipeline" data-entity-2="vector_db" data-source-line="33" data-uid="lnk21" id="link_ingestion_pipeline_vector_db"><path d="M956.71,342.43 C1001.76,380.3 1072.9478,440.1684 1117.8278,477.9084" fill="none" id="ingestion_pipeline-to-vector_db" style="stroke:#181818;stroke-width:1;"/><polygon fill="#181818" points="1122.42,481.77,1118.1061,472.9162,1118.5932,478.552,1112.9573,479.039,1122.42,481.77" style="stroke:#181818;stroke-width:1;"/><text fill="#000000" font-family="sans-serif" font-size="13" lengthAdjust="spacing" textLength="28.5645" x="1061.8" y="427.5184">uses</text></g><!--link flask to ingestion_pipeline--><g class="link" data-entity-1="flask" data-entity-2="ingestion_pipeline" data-source-line="34" data-uid="lnk22" id="link_flask_ingestion_pipeline"><path d="M853.83,104.34 C868.4,149.56 893.5503,227.669 908.1203,272.899" fill="none" id="flask-to-ingestion_pipeline" style="stroke:#181818;stroke-width:1;stroke-dasharray:7.0,7.0;"/><polygon fill="#181818" points="909.96,278.61,911.0078,268.817,908.4269,273.8508,903.3931,271.27,909.96,278.61" style="stroke:#181818;stroke-width:1;"/><text fill="#000000" font-family="sans-serif" font-size="13" lengthAdjust="spacing" textLength="49.3403" x="869.48" y="149.5484">triggers</text></g><!--link mlflow to GMN26--><g class="link" data-entity-1="mlflow" data-entity-2="GMN26" data-source-line="38" data-uid="lnk28" id="link_mlflow_GMN26"><path d="M749.9202,254.6825 C749.9827,254.4099 750.0458,254.1369 750.1094,253.8635 C750.2364,253.3166 750.3655,252.7679 750.4964,252.2176 C750.7584,251.1168 751.0282,250.0092 751.3061,248.8957 C752.4175,244.4417 753.6581,239.8923 755.0425,235.3012 C766.1175,198.5725 786.395,159.17 823.39,144.48 C867.59,126.93 1207.2,126.93 1251.39,144.48 C1325.34,173.84 1375.49,264.24 1391.97,297.78" fill="none" id="mlflow-GMN26" style="stroke:#181818;stroke-width:1;stroke-dasharray:7.0,7.0;"/></g><!--link rag_model to GMN29--><g class="link" data-entity-1="rag_model" data-entity-2="GMN29" data-source-line="39" data-uid="lnk31" id="link_rag_model_GMN29"><path d="M562.9,324.63 C473.5,342.69 317.79,379.8 194.89,438.95 C159.83,455.83 123.83,484.24 104.74,500.34" fill="none" id="rag_model-GMN29" style="stroke:#181818;stroke-width:1;stroke-dasharray:7.0,7.0;"/></g><!--SRC=[VLJ1Rjim3BtxAmXVUce_O0W214sw1KW0hycsOo3Bj2D4bWn9QrSC_VTHicmrjRERBBxtI96FleCrra8XT8nVM8CMcAg0wxRJ2fMpMRo7_1UMi5KEJSquvl0tWmI3_4aoUu5Lrqd1cHDQvR1OU0fTBPV0BDGUaRrdIN6lAvHmGFCYL3DHtEzggLz368rNkuBtcgqC6C-yuZwllaA0UrxnvivQmIFbjptDiERK-Z3ntgSbsKajcxR4ggAqIVL00LGSuMYOihKsBPeeZmDwJFAnD2Jy1KrIUZJQsetYz6rYVH4pnz_jzecwawnbFKVADi8_lcVD72kPdSxh9tAd3QJuOl6zegokLti9uLDLJjIWC9gZjNCZ2_6j8XTv1q0XEfJahJ24UExbnO0vTV7UvxaRl6XG1W_Pi-Xi5em3z_VBOTnV8FzsF1PvDiunHCUQFU2tHViPy6akjs3NtR-56lkT0DDN_J_j3VpCE_eMF3miPphdKSw8fY7_vRw9gwe2fHsjChaIk6H6kBVCtu34se6k-rtqn1-Md2ZyLZFkQEo2mIijhHZtlEUH_3aGqmJ2NbeODormdpU78woARQILsZdTUbxg7L6tRIUnzN-NG9Uw4JmodEuy_Ae51phYOCdKJJj9Cj-Rw5TIADPF_UzDg0h_Z98s_mS0]--></g></svg>