<svg xmlns="http://www.w3.org/2000/svg" xmlns:xlink="http://www.w3.org/1999/xlink" contentStyleType="text/css" data-diagram-type="DESCRIPTION" height="457px" preserveAspectRatio="none" style="width:740px;height:457px;background:#FFFFFF;" version="1.1" viewBox="0 0 740 457" width="740px" zoomAndPan="magnify"><defs/><g><!--cluster Local RAG System--><g class="cluster" data-entity="Local RAG System" data-source-line="5" data-uid="ent0003" id="cluster_Local RAG System"><rect fill="none" height="322.79" rx="2.5" ry="2.5" style="stroke:#181818;stroke-width:1;" width="727" x="7" y="128.99"/><text fill="#000000" font-family="sans-serif" font-size="14" font-weight="bold" lengthAdjust="spacing" textLength="128.4814" x="306.2593" y="144.5252">Local RAG System</text></g><g class="entity" data-entity="upload_pdfs" data-source-line="6" data-uid="ent0004" id="entity_upload_pdfs"><ellipse cx="90.0005" cy="183.7581" fill="#F1F1F1" rx="66.8905" ry="15.7781" style="stroke:#181818;stroke-width:0.5;"/><text fill="#000000" font-family="sans-serif" font-size="14" lengthAdjust="spacing" textLength="84.998" x="44.5015" y="187.7757">Upload PDFs</text></g><g class="entity" data-entity="manage_docs" data-source-line="7" data-uid="ent0005" id="entity_manage_docs"><ellipse cx="279.004" cy="183.7608" fill="#F1F1F1" rx="86.854" ry="19.7708" style="stroke:#181818;stroke-width:0.5;"/><text fill="#000000" font-family="sans-serif" font-size="14" lengthAdjust="spacing" textLength="134.0459" x="211.9811" y="187.0518">Manage Documents</text></g><g class="entity" data-entity="ask_questions" data-source-line="8" data-uid="ent0006" id="entity_ask_questions"><ellipse cx="471.998" cy="183.7596" fill="#F1F1F1" rx="71.598" ry="16.7196" style="stroke:#181818;stroke-width:0.5;"/><text fill="#000000" font-family="sans-serif" font-size="14" lengthAdjust="spacing" textLength="97.6172" x="422.2292" y="187.3059">Ask Questions</text></g><g class="entity" data-entity="view_answers" data-source-line="9" data-uid="ent0007" id="entity_view_answers"><ellipse cx="647.9972" cy="183.7554" fill="#F1F1F1" rx="69.8772" ry="16.3754" style="stroke:#181818;stroke-width:0.5;"/><text fill="#000000" font-family="sans-serif" font-size="14" lengthAdjust="spacing" textLength="93.1533" x="599.5585" y="187.5215">View Answers</text></g><g class="entity" data-entity="process_pdfs" data-source-line="10" data-uid="ent0008" id="entity_process_pdfs"><ellipse cx="94.9985" cy="299.5977" fill="#F1F1F1" rx="68.1885" ry="16.0377" style="stroke:#181818;stroke-width:0.5;"/><text fill="#000000" font-family="sans-serif" font-size="14" lengthAdjust="spacing" textLength="88.6074" x="47.8652" y="303.5793">Process PDFs</text></g><g class="entity" data-entity="index_docs" data-source-line="11" data-uid="ent0009" id="entity_index_docs"><ellipse cx="102.9967" cy="415.7273" fill="#F1F1F1" rx="80.4867" ry="18.4973" style="stroke:#181818;stroke-width:0.5;"/><text fill="#000000" font-family="sans-serif" font-size="14" lengthAdjust="spacing" textLength="119.2256" x="43.3839" y="419.0184">Index Documents</text></g><g class="entity" data-entity="search_docs" data-source-line="12" data-uid="ent0010" id="entity_search_docs"><ellipse cx="472.0004" cy="299.6021" fill="#F1F1F1" rx="83.3604" ry="19.0721" style="stroke:#181818;stroke-width:0.5;"/><text fill="#000000" font-family="sans-serif" font-size="14" lengthAdjust="spacing" textLength="125.9658" x="409.0175" y="302.8931">Search Documents</text></g><g class="entity" data-entity="generate_responses" data-source-line="13" data-uid="ent0011" id="entity_generate_responses"><ellipse cx="472.0016" cy="415.7343" fill="#F1F1F1" rx="88.2716" ry="20.0543" style="stroke:#181818;stroke-width:0.5;"/><text fill="#000000" font-family="sans-serif" font-size="14" lengthAdjust="spacing" textLength="137.293" x="403.3551" y="419.0253">Generate Responses</text></g><!--entity User--><g class="entity" data-entity="User" data-source-line="2" data-uid="ent0002" id="entity_User"><ellipse cx="337.0026" cy="14" fill="#F1F1F1" rx="8" ry="8" style="stroke:#181818;stroke-width:0.5;"/><path d="M337.0026,22 L337.0026,49 M324.0026,30 L350.0026,30 M337.0026,49 L324.0026,64 M337.0026,49 L350.0026,64" fill="none" style="stroke:#181818;stroke-width:0.5;"/><text fill="#000000" font-family="sans-serif" font-size="14" lengthAdjust="spacing" textLength="30.3652" x="321.82" y="79.0352">User</text></g><!--link User to upload_pdfs--><g class="link" data-entity-1="User" data-entity-2="upload_pdfs" data-source-line="17" data-uid="lnk12" id="link_User_upload_pdfs"><path d="M321.32,50.96 C291.81,62.91 226.37,90.6 175,120.99 C150.66,135.38 129.3484,151.271 112.5984,164.501" fill="none" id="User-to-upload_pdfs" style="stroke:#181818;stroke-width:1;"/><polygon fill="#181818" points="107.89,168.22,117.432,165.7805,111.8137,165.1209,112.4733,159.5026,107.89,168.22" style="stroke:#181818;stroke-width:1;"/></g><!--link User to manage_docs--><g class="link" data-entity-1="User" data-entity-2="manage_docs" data-source-line="18" data-uid="lnk13" id="link_User_manage_docs"><path d="M321.46,81.73 C310.32,108.24 298.0954,137.319 289.2454,158.369" fill="none" id="User-to-manage_docs" style="stroke:#181818;stroke-width:1;"/><polygon fill="#181818" points="286.92,163.9,294.0955,157.1537,288.8578,159.2908,286.7207,154.0532,286.92,163.9" style="stroke:#181818;stroke-width:1;"/></g><!--link User to ask_questions--><g class="link" data-entity-1="User" data-entity-2="ask_questions" data-source-line="19" data-uid="lnk14" id="link_User_ask_questions"><path d="M352.49,60.57 C378.53,87.2 426.5854,136.3199 452.4954,162.8199" fill="none" id="User-to-ask_questions" style="stroke:#181818;stroke-width:1;"/><polygon fill="#181818" points="456.69,167.11,453.2582,157.8784,453.1945,163.5349,447.538,163.4712,456.69,167.11" style="stroke:#181818;stroke-width:1;"/></g><!--link User to view_answers--><g class="link" data-entity-1="User" data-entity-2="view_answers" data-source-line="20" data-uid="lnk15" id="link_User_view_answers"><path d="M352.56,48.38 C389.89,57.45 486.94,83.11 561,120.99 C586.56,134.06 608.388,150.1854 625.328,163.8354" fill="none" id="User-to-view_answers" style="stroke:#181818;stroke-width:1;"/><polygon fill="#181818" points="630,167.6,625.5018,158.8384,626.1067,164.4628,620.4822,165.0677,630,167.6" style="stroke:#181818;stroke-width:1;"/></g><!--link upload_pdfs to process_pdfs--><g class="link" data-entity-1="upload_pdfs" data-entity-2="process_pdfs" data-source-line="23" data-uid="lnk16" id="link_upload_pdfs_process_pdfs"><path d="M90.65,199.64 C91.61,221.34 93.1072,255.4558 94.0672,277.3558" fill="none" id="upload_pdfs-to-process_pdfs" style="stroke:#181818;stroke-width:1;stroke-dasharray:7.0,7.0;"/><polygon fill="#181818" points="94.33,283.35,97.932,274.1835,94.111,278.3548,89.9397,274.5338,94.33,283.35" style="stroke:#181818;stroke-width:1;"/><text fill="#000000" font-family="sans-serif" font-size="13" lengthAdjust="spacing" textLength="63.8193" x="93.8" y="247.0984">&#171;extends&#187;</text></g><!--link process_pdfs to index_docs--><g class="link" data-entity-1="process_pdfs" data-entity-2="index_docs" data-source-line="24" data-uid="lnk17" id="link_process_pdfs_index_docs"><path d="M96.08,315.99 C97.55,337.04 99.7827,368.7445 101.3327,390.9745" fill="none" id="process_pdfs-to-index_docs" style="stroke:#181818;stroke-width:1;stroke-dasharray:7.0,7.0;"/><polygon fill="#181818" points="101.75,396.96,105.1143,387.7036,101.4022,391.9721,97.1337,388.26,101.75,396.96" style="stroke:#181818;stroke-width:1;"/><text fill="#000000" font-family="sans-serif" font-size="13" lengthAdjust="spacing" textLength="65.9839" x="100.48" y="362.2384">&#171;includes&#187;</text></g><!--link ask_questions to search_docs--><g class="link" data-entity-1="ask_questions" data-entity-2="search_docs" data-source-line="25" data-uid="lnk18" id="link_ask_questions_search_docs"><path d="M472,200.59 C472,221.48 472,252.19 472,274.27" fill="none" id="ask_questions-to-search_docs" style="stroke:#181818;stroke-width:1;stroke-dasharray:7.0,7.0;"/><polygon fill="#181818" points="472,280.27,476,271.27,472,275.27,468,271.27,472,280.27" style="stroke:#181818;stroke-width:1;"/><text fill="#000000" font-family="sans-serif" font-size="13" lengthAdjust="spacing" textLength="63.8193" x="473" y="247.0984">&#171;extends&#187;</text></g><!--link search_docs to generate_responses--><g class="link" data-entity-1="search_docs" data-entity-2="generate_responses" data-source-line="26" data-uid="lnk19" id="link_search_docs_generate_responses"><path d="M472,318.94 C472,339.85 472,367.92 472,389.29" fill="none" id="search_docs-to-generate_responses" style="stroke:#181818;stroke-width:1;stroke-dasharray:7.0,7.0;"/><polygon fill="#181818" points="472,395.29,476,386.29,472,390.29,468,386.29,472,395.29" style="stroke:#181818;stroke-width:1;"/><text fill="#000000" font-family="sans-serif" font-size="13" lengthAdjust="spacing" textLength="65.9839" x="473" y="362.2384">&#171;includes&#187;</text></g><!--SRC=[XP7HQi8m58Rl-nI7tdYb3p2a8CXai85Jt6t9adzQh4cNaqx7sBklJQOcdR1U5FgTZ_JFVqOqnrkbGMu74j8Pc_atRHWsoqRnk6MG50pEBAGJUbk3yaSZHKshsOBMd-nmoEahe-xfvDwbVDFKHYXQpkyv9y7K-k-oKM-SYaz2YoreRcHxW7R1FdXOAYC7zeptzDo2NMLqK0Nlo_SpIUMN2aUQQJx21lUZ0wK885MNraWmN_Cs0Tm8_A0LJeEyLSzkn5r3MBaRoEpX3Ni13IiSQ0LkkjiW-DjVNDepphwZ7LdKmbz-LpLCht17G8Ubaj0gsb-_N1gFYsGP5nXtVe5fknUS5FbVb6k0wByqcHH9oNH7qobE3bfnKMJ9g7Ul5Nkpqh9k5NeroUZTgE71iV6aD_zsEppz1m00]--></g></svg>