<svg xmlns="http://www.w3.org/2000/svg" xmlns:xlink="http://www.w3.org/1999/xlink" contentStyleType="text/css" data-diagram-type="DESCRIPTION" height="1089px" preserveAspectRatio="none" style="width:1560px;height:1089px;background:#FFFFFF;" version="1.1" viewBox="0 0 1560 1089" width="1560px" zoomAndPan="magnify"><title>Local RAG System Deployment Diagram</title><defs/><g><text fill="#000000" font-family="sans-serif" font-size="14" font-weight="bold" lengthAdjust="spacing" textLength="285.8857" x="630.3221" y="23.5352">Local RAG System Deployment Diagram</text><!--cluster macmini--><g class="cluster" data-entity="macmini" data-source-line="7" data-uid="ent0003" id="cluster_macmini"><polygon fill="none" points="249.53,209.7383,259.53,199.7383,1543.53,199.7383,1543.53,1062.3783,1533.53,1072.3783,249.53,1072.3783,249.53,209.7383" style="stroke:#181818;stroke-width:1;"/><line style="stroke:#181818;stroke-width:1;" x1="1533.53" x2="1543.53" y1="209.7383" y2="199.7383"/><line style="stroke:#181818;stroke-width:1;" x1="249.53" x2="1533.53" y1="209.7383" y2="209.7383"/><line style="stroke:#181818;stroke-width:1;" x1="1533.53" x2="1533.53" y1="209.7383" y2="1072.3783"/><text fill="#000000" font-family="sans-serif" font-size="14" font-weight="bold" lengthAdjust="spacing" textLength="124.8379" x="830.1111" y="226.2734">MacMini (M2 Pro)</text></g><!--cluster host_models--><g class="cluster" data-entity="host_models" data-source-line="14" data-uid="ent0008" id="cluster_host_models"><rect fill="none" height="260.96" rx="2.5" ry="2.5" style="stroke:#181818;stroke-width:1;" width="616" x="887.53" y="771.4183"/><polygon fill="none" points="1486.53,776.4183,1486.53,790.4183,1498.53,790.4183,1498.53,782.4183,1492.53,776.4183,1486.53,776.4183" style="stroke:#181818;stroke-width:1;"/><line style="stroke:#181818;stroke-width:1;" x1="1492.53" x2="1492.53" y1="776.4183" y2="782.4183"/><line style="stroke:#181818;stroke-width:1;" x1="1498.53" x2="1492.53" y1="782.4183" y2="782.4183"/><text fill="#000000" font-family="sans-serif" font-size="14" font-weight="bold" lengthAdjust="spacing" textLength="52.4658" x="1169.2971" y="786.9534">models</text></g><!--cluster vector_db--><g class="cluster" data-entity="vector_db" data-source-line="26" data-uid="ent0015" id="cluster_vector_db"><polygon fill="none" points="339.53,764.6683,349.53,754.6683,522.53,754.6683,522.53,879.6483,512.53,889.6483,339.53,889.6483,339.53,764.6683" style="stroke:#181818;stroke-width:1;"/><line style="stroke:#181818;stroke-width:1;" x1="512.53" x2="522.53" y1="764.6683" y2="754.6683"/><line style="stroke:#181818;stroke-width:1;" x1="339.53" x2="512.53" y1="764.6683" y2="764.6683"/><line style="stroke:#181818;stroke-width:1;" x1="512.53" x2="512.53" y1="764.6683" y2="889.6483"/><text fill="#000000" font-family="sans-serif" font-size="14" font-weight="bold" lengthAdjust="spacing" textLength="72.4336" x="390.8132" y="781.2034">vector-db</text></g><!--cluster mlflow_node--><g class="cluster" data-entity="mlflow_node" data-source-line="30" data-uid="ent0017" id="cluster_mlflow_node"><polygon fill="none" points="748.53,564.6883,758.53,554.6883,987.53,554.6883,987.53,679.6683,977.53,689.6683,748.53,689.6683,748.53,564.6883" style="stroke:#181818;stroke-width:1;"/><line style="stroke:#181818;stroke-width:1;" x1="977.53" x2="987.53" y1="564.6883" y2="554.6883"/><line style="stroke:#181818;stroke-width:1;" x1="748.53" x2="977.53" y1="564.6883" y2="564.6883"/><line style="stroke:#181818;stroke-width:1;" x1="977.53" x2="977.53" y1="564.6883" y2="689.6683"/><text fill="#000000" font-family="sans-serif" font-size="14" font-weight="bold" lengthAdjust="spacing" textLength="49.5059" x="839.2771" y="581.2234">mlflow</text></g><!--cluster flask_app_node--><g class="cluster" data-entity="flask_app_node" data-source-line="34" data-uid="ent0019" id="cluster_flask_app_node"><polygon fill="none" points="392.53,364.7183,402.53,354.7183,601.53,354.7183,601.53,479.6883,591.53,489.6883,392.53,489.6883,392.53,364.7183" style="stroke:#181818;stroke-width:1;"/><line style="stroke:#181818;stroke-width:1;" x1="591.53" x2="601.53" y1="364.7183" y2="354.7183"/><line style="stroke:#181818;stroke-width:1;" x1="392.53" x2="591.53" y1="364.7183" y2="364.7183"/><line style="stroke:#181818;stroke-width:1;" x1="591.53" x2="591.53" y1="364.7183" y2="489.6883"/><text fill="#000000" font-family="sans-serif" font-size="14" font-weight="bold" lengthAdjust="spacing" textLength="71.0869" x="457.4865" y="381.2534">flask-app</text></g><!--entity host_pdfs--><g class="entity" data-entity="host_pdfs" data-source-line="10" data-uid="ent0004" id="entity_host_pdfs"><rect fill="#F1F1F1" height="55.9766" rx="2.5" ry="2.5" style="stroke:#181818;stroke-width:0.5;" width="120.6309" x="310.21" y="606.1883"/><polygon fill="#F1F1F1" points="413.8409,611.1883,413.8409,625.1883,425.8409,625.1883,425.8409,617.1883,419.8409,611.1883,413.8409,611.1883" style="stroke:#181818;stroke-width:0.5;"/><line style="stroke:#181818;stroke-width:0.5;" x1="419.8409" x2="419.8409" y1="611.1883" y2="617.1883"/><line style="stroke:#181818;stroke-width:0.5;" x1="425.8409" x2="419.8409" y1="617.1883" y2="617.1883"/><text fill="#000000" font-family="sans-serif" font-size="14" lengthAdjust="spacing" textLength="66.7598" x="320.21" y="632.7234">data/pdfs</text><text fill="#000000" font-family="sans-serif" font-size="14" lengthAdjust="spacing" textLength="90.6309" x="320.21" y="649.2117">(PDF Storage)</text></g><!--entity host_vectors--><g class="entity" data-entity="host_vectors" data-source-line="11" data-uid="ent0005" id="entity_host_vectors"><rect fill="#F1F1F1" height="55.9766" rx="2.5" ry="2.5" style="stroke:#181818;stroke-width:0.5;" width="138.5889" x="424.24" y="960.6483"/><polygon fill="#F1F1F1" points="545.8289,965.6483,545.8289,979.6483,557.8289,979.6483,557.8289,971.6483,551.8289,965.6483,545.8289,965.6483" style="stroke:#181818;stroke-width:0.5;"/><line style="stroke:#181818;stroke-width:0.5;" x1="551.8289" x2="551.8289" y1="965.6483" y2="971.6483"/><line style="stroke:#181818;stroke-width:0.5;" x1="557.8289" x2="551.8289" y1="971.6483" y2="971.6483"/><text fill="#000000" font-family="sans-serif" font-size="14" lengthAdjust="spacing" textLength="85.7705" x="434.24" y="987.1834">data/vectors</text><text fill="#000000" font-family="sans-serif" font-size="14" lengthAdjust="spacing" textLength="108.5889" x="434.24" y="1003.6717">(Vector Storage)</text></g><!--entity host_mlflow_artifacts--><g class="entity" data-entity="host_mlflow_artifacts" data-source-line="12" data-uid="ent0006" id="entity_host_mlflow_artifacts"><rect fill="#F1F1F1" height="55.9766" rx="2.5" ry="2.5" style="stroke:#181818;stroke-width:0.5;" width="141.9453" x="546.56" y="806.1683"/><polygon fill="#F1F1F1" points="671.5053,811.1683,671.5053,825.1683,683.5053,825.1683,683.5053,817.1683,677.5053,811.1683,671.5053,811.1683" style="stroke:#181818;stroke-width:0.5;"/><line style="stroke:#181818;stroke-width:0.5;" x1="677.5053" x2="677.5053" y1="811.1683" y2="817.1683"/><line style="stroke:#181818;stroke-width:0.5;" x1="683.5053" x2="677.5053" y1="817.1683" y2="817.1683"/><text fill="#000000" font-family="sans-serif" font-size="14" lengthAdjust="spacing" textLength="108.2061" x="556.56" y="832.7034">mlflow/artifacts</text><text fill="#000000" font-family="sans-serif" font-size="14" lengthAdjust="spacing" textLength="111.9453" x="556.56" y="849.1917">(Model Artifacts)</text></g><!--entity host_mlflow_backend--><g class="entity" data-entity="host_mlflow_backend" data-source-line="13" data-uid="ent0007" id="entity_host_mlflow_backend"><rect fill="#F1F1F1" height="55.9766" rx="2.5" ry="2.5" style="stroke:#181818;stroke-width:0.5;" width="140.2363" x="723.41" y="806.1683"/><polygon fill="#F1F1F1" points="846.6463,811.1683,846.6463,825.1683,858.6463,825.1683,858.6463,817.1683,852.6463,811.1683,846.6463,811.1683" style="stroke:#181818;stroke-width:0.5;"/><line style="stroke:#181818;stroke-width:0.5;" x1="852.6463" x2="852.6463" y1="811.1683" y2="817.1683"/><line style="stroke:#181818;stroke-width:0.5;" x1="858.6463" x2="852.6463" y1="817.1683" y2="817.1683"/><text fill="#000000" font-family="sans-serif" font-size="14" lengthAdjust="spacing" textLength="110.2363" x="733.41" y="832.7034">mlflow/backend</text><text fill="#000000" font-family="sans-serif" font-size="14" lengthAdjust="spacing" textLength="91.2051" x="733.41" y="849.1917">(Tracking DB)</text></g><!--entity host_app--><g class="entity" data-entity="host_app" data-source-line="19" data-uid="ent0012" id="entity_host_app"><rect fill="#F1F1F1" height="55.9766" rx="2.5" ry="2.5" style="stroke:#181818;stroke-width:0.5;" width="107.0615" x="466" y="606.1883"/><polygon fill="#F1F1F1" points="556.0615,611.1883,556.0615,625.1883,568.0615,625.1883,568.0615,617.1883,562.0615,611.1883,556.0615,611.1883" style="stroke:#181818;stroke-width:0.5;"/><line style="stroke:#181818;stroke-width:0.5;" x1="562.0615" x2="562.0615" y1="611.1883" y2="617.1883"/><line style="stroke:#181818;stroke-width:0.5;" x1="568.0615" x2="562.0615" y1="617.1883" y2="617.1883"/><text fill="#000000" font-family="sans-serif" font-size="14" lengthAdjust="spacing" textLength="25.3545" x="476" y="632.7234">app</text><text fill="#000000" font-family="sans-serif" font-size="14" lengthAdjust="spacing" textLength="77.0615" x="476" y="649.2117">(RAG Code)</text></g><!--entity host_flask_app--><g class="entity" data-entity="host_flask_app" data-source-line="20" data-uid="ent0013" id="entity_host_flask_app"><rect fill="#F1F1F1" height="55.9766" rx="2.5" ry="2.5" style="stroke:#181818;stroke-width:0.5;" width="113.0361" x="608.01" y="606.1883"/><polygon fill="#F1F1F1" points="704.0461,611.1883,704.0461,625.1883,716.0461,625.1883,716.0461,617.1883,710.0461,611.1883,704.0461,611.1883" style="stroke:#181818;stroke-width:0.5;"/><line style="stroke:#181818;stroke-width:0.5;" x1="710.0461" x2="710.0461" y1="611.1883" y2="617.1883"/><line style="stroke:#181818;stroke-width:0.5;" x1="716.0461" x2="710.0461" y1="617.1883" y2="617.1883"/><text fill="#000000" font-family="sans-serif" font-size="14" lengthAdjust="spacing" textLength="65.7002" x="618.01" y="632.7234">flask-app</text><text fill="#000000" font-family="sans-serif" font-size="14" lengthAdjust="spacing" textLength="83.0361" x="618.01" y="649.2117">(Flask Code)</text></g><!--entity network--><g class="entity" data-entity="network" data-source-line="23" data-uid="ent0014" id="entity_network"><path d="M283.1237,975.1271 C285.4129,969.8848 289.914,967.5363 294.3628,972.8216 C297.7822,967.2986 303.3804,966.2392 307.4498,972.0728 C311.8016,965.7918 316.9099,966.8935 320.2913,973.0729 C323.2522,965.3414 328.2441,965.8827 333.5113,970.6294 C337.2222,966.1184 343.0927,966.3723 345.4672,972.1782 C349.8209,966.0385 355.1565,967.5305 357.7112,973.9342 C361.7282,968.5089 366.0324,968.7953 370.158,973.8047 C373.4799,966.8766 379.605,966.7234 383.0128,973.7255 C391.5587,976.73 395.1298,983.0026 387.5066,990.372 C392.3956,997.19 391.4382,1001.9776 383.3351,1005.121 C380.5023,1012.0263 375.2602,1012.7218 370.8302,1006.6613 C368.5413,1014.5383 363.499,1016.0835 357.4003,1010.4477 C353.8083,1016.0374 349.2301,1016.2722 345.1253,1011.0288 C342.5688,1017.6833 337.4644,1019.9359 332.2407,1013.6934 C327.7623,1018.4531 323.0599,1017.7245 320.0105,1012.0227 C314.8947,1016.9559 310.7955,1015.7785 308.4167,1009.2533 C303.2943,1014.2658 298.3965,1013.6771 295.9805,1006.4937 C291.6147,1012.5518 286.1124,1012.2198 282.5098,1005.6777 C272.8823,1005.3862 269.399,997.6443 275.4891,990.2158 C271.7428,982.626 272.708,975.5512 283.1237,975.1271" fill="#F1F1F1" style="stroke:#181818;stroke-width:0.5;"/><text fill="#000000" font-family="sans-serif" font-size="14" lengthAdjust="spacing" textLength="85.3125" x="288.87" y="993.9234">rag-network</text></g><!--entity embedding_model--><g class="entity" data-entity="embedding_model" data-source-line="15" data-uid="ent0009" id="entity_embedding_model"><rect fill="#F1F1F1" height="39.4883" rx="2.5" ry="2.5" style="stroke:#181818;stroke-width:0.5;" width="234.8184" x="911.12" y="814.4183"/><polygon fill="#F1F1F1" points="1128.9384,819.4183,1128.9384,833.4183,1140.9384,833.4183,1140.9384,825.4183,1134.9384,819.4183,1128.9384,819.4183" style="stroke:#181818;stroke-width:0.5;"/><line style="stroke:#181818;stroke-width:0.5;" x1="1134.9384" x2="1134.9384" y1="819.4183" y2="825.4183"/><line style="stroke:#181818;stroke-width:0.5;" x1="1140.9384" x2="1134.9384" y1="825.4183" y2="825.4183"/><text fill="#000000" font-family="sans-serif" font-size="14" lengthAdjust="spacing" textLength="204.8184" x="921.12" y="840.9534">embedding/all-MiniLM-L6-v2</text></g><!--entity reranker_model--><g class="entity" data-entity="reranker_model" data-source-line="16" data-uid="ent0010" id="entity_reranker_model"><rect fill="#F1F1F1" height="39.4883" rx="2.5" ry="2.5" style="stroke:#181818;stroke-width:0.5;" width="278.5205" x="1181.27" y="814.4183"/><polygon fill="#F1F1F1" points="1442.7905,819.4183,1442.7905,833.4183,1454.7905,833.4183,1454.7905,825.4183,1448.7905,819.4183,1442.7905,819.4183" style="stroke:#181818;stroke-width:0.5;"/><line style="stroke:#181818;stroke-width:0.5;" x1="1448.7905" x2="1448.7905" y1="819.4183" y2="825.4183"/><line style="stroke:#181818;stroke-width:0.5;" x1="1454.7905" x2="1448.7905" y1="825.4183" y2="825.4183"/><text fill="#000000" font-family="sans-serif" font-size="14" lengthAdjust="spacing" textLength="248.5205" x="1191.27" y="840.9534">reranker/ms-marco-MiniLM-L-6-v2</text></g><!--entity llama_model--><g class="entity" data-entity="llama_model" data-source-line="17" data-uid="ent0011" id="entity_llama_model"><rect fill="#F1F1F1" height="39.4883" rx="2.5" ry="2.5" style="stroke:#181818;stroke-width:0.5;" width="252.1201" x="911.47" y="968.8883"/><polygon fill="#F1F1F1" points="1146.5901,973.8883,1146.5901,987.8883,1158.5901,987.8883,1158.5901,979.8883,1152.5901,973.8883,1146.5901,973.8883" style="stroke:#181818;stroke-width:0.5;"/><line style="stroke:#181818;stroke-width:0.5;" x1="1152.5901" x2="1152.5901" y1="973.8883" y2="979.8883"/><line style="stroke:#181818;stroke-width:0.5;" x1="1158.5901" x2="1152.5901" y1="979.8883" y2="979.8883"/><text fill="#000000" font-family="sans-serif" font-size="14" lengthAdjust="spacing" textLength="222.1201" x="921.47" y="995.4234">llm/llama-2-7b-chat-q4_0.gguf</text></g><!--entity qdrant--><g class="entity" data-entity="qdrant" data-source-line="27" data-uid="ent0016" id="entity_qdrant"><rect fill="#F1F1F1" height="62.9766" rx="2.5" ry="2.5" style="stroke:#181818;stroke-width:0.5;" width="115.7627" x="382.65" y="802.6683"/><rect fill="#F1F1F1" height="10" style="stroke:#181818;stroke-width:0.5;" width="15" x="478.4127" y="807.6683"/><rect fill="#F1F1F1" height="2" style="stroke:#181818;stroke-width:0.5;" width="4" x="476.4127" y="809.6683"/><rect fill="#F1F1F1" height="2" style="stroke:#181818;stroke-width:0.5;" width="4" x="476.4127" y="813.6683"/><text fill="#000000" font-family="sans-serif" font-size="14" lengthAdjust="spacing" textLength="47.0723" x="397.65" y="836.2034">Qdrant</text><text fill="#000000" font-family="sans-serif" font-size="14" lengthAdjust="spacing" textLength="75.7627" x="397.65" y="852.6917">(Vector DB)</text></g><!--entity mlflow_server--><g class="entity" data-entity="mlflow_server" data-source-line="31" data-uid="ent0018" id="entity_mlflow_server"><rect fill="#F1F1F1" height="62.9766" rx="2.5" ry="2.5" style="stroke:#181818;stroke-width:0.5;" width="171.1611" x="791.95" y="602.6883"/><rect fill="#F1F1F1" height="10" style="stroke:#181818;stroke-width:0.5;" width="15" x="943.1111" y="607.6883"/><rect fill="#F1F1F1" height="2" style="stroke:#181818;stroke-width:0.5;" width="4" x="941.1111" y="609.6883"/><rect fill="#F1F1F1" height="2" style="stroke:#181818;stroke-width:0.5;" width="4" x="941.1111" y="613.6883"/><text fill="#000000" font-family="sans-serif" font-size="14" lengthAdjust="spacing" textLength="94.377" x="806.95" y="636.2234">MLflow Server</text><text fill="#000000" font-family="sans-serif" font-size="14" lengthAdjust="spacing" textLength="131.1611" x="806.95" y="652.7117">(Serves RAG Model)</text></g><!--entity flask_app--><g class="entity" data-entity="flask_app" data-source-line="35" data-uid="ent0020" id="entity_flask_app"><rect fill="#F1F1F1" height="62.9766" rx="2.5" ry="2.5" style="stroke:#181818;stroke-width:0.5;" width="141.459" x="435.8" y="402.7183"/><rect fill="#F1F1F1" height="10" style="stroke:#181818;stroke-width:0.5;" width="15" x="557.259" y="407.7183"/><rect fill="#F1F1F1" height="2" style="stroke:#181818;stroke-width:0.5;" width="4" x="555.259" y="409.7183"/><rect fill="#F1F1F1" height="2" style="stroke:#181818;stroke-width:0.5;" width="4" x="555.259" y="413.7183"/><text fill="#000000" font-family="sans-serif" font-size="14" lengthAdjust="spacing" textLength="66.3154" x="450.8" y="436.2534">Flask App</text><text fill="#000000" font-family="sans-serif" font-size="14" lengthAdjust="spacing" textLength="101.459" x="450.8" y="452.7417">(Web Interface)</text></g><!--entity User--><g class="entity" data-entity="User" data-source-line="4" data-uid="ent0002" id="entity_User"><ellipse cx="276.5326" cy="51.4883" fill="#F1F1F1" rx="8" ry="8" style="stroke:#181818;stroke-width:0.5;"/><path d="M276.5326,59.4883 L276.5326,86.4883 M263.5326,67.4883 L289.5326,67.4883 M276.5326,86.4883 L263.5326,101.4883 M276.5326,86.4883 L289.5326,101.4883" fill="none" style="stroke:#181818;stroke-width:0.5;"/><text fill="#000000" font-family="sans-serif" font-size="14" lengthAdjust="spacing" textLength="30.3652" x="261.35" y="116.5234">User</text></g><g class="entity" data-entity="GMN36" data-source-line="62" data-uid="ent0037" id="entity_GMN36"><path d="M6,196.4783 L6,267.7205 L225.0596,267.7205 L225.0596,206.4783 L215.0596,196.4783 L6,196.4783" fill="#FEFFDD" style="stroke:#181818;stroke-width:0.5;"/><path d="M215.0596,196.4783 L215.0596,206.4783 L225.0596,206.4783 L215.0596,196.4783" fill="#FEFFDD" style="stroke:#181818;stroke-width:1;"/><text fill="#000000" font-family="sans-serif" font-size="13" lengthAdjust="spacing" textLength="93.4438" x="12" y="214.0466">Exposed Ports:</text><text fill="#000000" font-family="sans-serif" font-size="13" lengthAdjust="spacing" textLength="114.3213" x="12" y="229.3572">- 8000: Flask App</text><text fill="#000000" font-family="sans-serif" font-size="13" lengthAdjust="spacing" textLength="198.0596" x="12" y="244.6677">- 5001: MLflow (maps to 5000)</text><text fill="#000000" font-family="sans-serif" font-size="13" lengthAdjust="spacing" textLength="137.5601" x="12" y="259.9783">- 6333, 6334: Qdrant</text></g><!--link User to macmini--><g class="link" data-entity-1="User" data-entity-2="macmini" data-source-line="40" data-uid="lnk21" id="link_User_macmini"><path d="M276.53,119.7983 C276.53,141.5033 276.53,168.8033 276.53,190.9333 C276.53,193.6995 276.53,196.385 276.53,198.9687 C276.53,199.1301 276.53,193.2912 276.53,193.4519" fill="none" id="User-to-macmini" style="stroke:#181818;stroke-width:1;"/><polygon fill="#181818" points="276.53,199.4519,280.53,190.4519,276.53,194.4519,272.53,190.4519,276.53,199.4519" style="stroke:#181818;stroke-width:1;"/><text fill="#000000" font-family="sans-serif" font-size="13" lengthAdjust="spacing" textLength="70.1733" x="277.53" y="163.0466">HTTP 8000</text></g><!--link macmini to flask_app_node--><g class="link" data-entity-1="macmini" data-entity-2="flask_app_node" data-source-line="41" data-uid="lnk22" id="link_macmini_flask_app_node"><path d="M276.62,233.2383 C278.47,236.2233 308.515,284.7108 338.5525,333.187 C353.5713,357.4252 368.5881,381.6605 380.0778,400.2038 C382.9502,404.8396 385.6022,409.1196 387.9786,412.9551 C389.1669,414.8728 390.2862,416.6793 391.3298,418.3636 C391.5907,418.7847 391.8468,419.1981 392.0981,419.6037 C392.2238,419.8065 389.1881,414.907 389.3113,415.1059" fill="none" id="macmini-to-flask_app_node" style="stroke:#181818;stroke-width:1;"/><polygon fill="#181818" points="392.4715,420.2062,391.1315,410.449,389.838,415.9559,384.331,414.6625,392.4715,420.2062" style="stroke:#181818;stroke-width:1;"/><text fill="#000000" font-family="sans-serif" font-size="13" lengthAdjust="spacing" textLength="109.3638" x="324.78" y="311.2866">forwards to 8000</text></g><!--link flask_app to mlflow_server--><g class="link" data-entity-1="flask_app" data-entity-2="mlflow_server" data-source-line="42" data-uid="lnk23" id="link_flask_app_mlflow_server"><path d="M577.73,440.3683 C640.64,447.9883 732.26,466.8883 797.53,513.6883 C828.87,536.1683 848.9332,569.6246 861.9732,596.9146" fill="none" id="flask_app-to-mlflow_server" style="stroke:#181818;stroke-width:1;"/><polygon fill="#181818" points="864.56,602.3283,864.2889,592.4832,862.4043,597.8169,857.0706,595.9323,864.56,602.3283" style="stroke:#181818;stroke-width:1;"/><text fill="#000000" font-family="sans-serif" font-size="13" lengthAdjust="spacing" textLength="70.1733" x="816.19" y="527.2566">HTTP 5000</text></g><!--link mlflow_server to qdrant--><g class="link" data-entity-1="mlflow_server" data-entity-2="qdrant" data-source-line="43" data-uid="lnk24" id="link_mlflow_server_qdrant"><path d="M848.1,666.1683 C831.82,681.0883 810.32,697.4783 787.53,705.6683 C771.32,711.4983 491.26,703.2683 477.53,713.6683 C450.44,734.1883 443.0602,768.293 441.0902,796.353" fill="none" id="mlflow_server-to-qdrant" style="stroke:#181818;stroke-width:1;"/><polygon fill="#181818" points="440.67,802.3383,445.2905,793.6405,441.0202,797.3506,437.3101,793.0802,440.67,802.3383" style="stroke:#181818;stroke-width:1;"/><text fill="#000000" font-family="sans-serif" font-size="13" lengthAdjust="spacing" textLength="61.3945" x="478.53" y="727.2366">TCP 6333</text></g><!--link vector_db to network--><g class="link" data-entity-1="vector_db" data-entity-2="network" data-source-line="46" data-uid="lnk25" id="link_vector_db_network"><path d="M344.8981,889.9707 C344.8888,890.094 344.8795,890.2173 344.8702,890.3406 C344.8515,890.5872 344.8327,890.8338 344.8139,891.0803 C344.7383,892.0665 344.6607,893.0518 344.5813,894.0351 C344.2633,897.968 343.9138,901.867 343.53,905.6483 C341.48,925.8283 338.05,948.6483 335.38,965.0783" fill="none" id="vector_db-network" style="stroke:#181818;stroke-width:1;"/></g><!--link mlflow_node to network--><g class="link" data-entity-1="mlflow_node" data-entity-2="network" data-source-line="47" data-uid="lnk26" id="link_mlflow_node_network"><path d="M761.6057,689.8967 C761.5738,690.0085 761.5414,690.1202 761.5085,690.2317 C761.3773,690.6779 761.2393,691.1212 761.0943,691.5616 C760.5146,693.3231 759.8242,695.0366 759.0098,696.6854 C757.3809,699.9831 755.2562,703.022 752.53,705.6683 C740.61,717.2383 470.04,711.7683 453.53,713.6683 C398.54,719.9883 366.52,695.7783 331.53,738.6683 C277.57,804.8183 306.87,917.0783 323.08,964.9383" fill="none" id="mlflow_node-network" style="stroke:#181818;stroke-width:1;"/></g><!--link flask_app_node to network--><g class="link" data-entity-1="flask_app_node" data-entity-2="network" data-source-line="48" data-uid="lnk27" id="link_flask_app_node_network"><path d="M392.4051,439.7445 C392.2019,439.8632 391.9953,439.9841 391.7856,440.1072 C390.1075,441.0921 388.2238,442.2194 386.1666,443.4838 C377.9375,448.5411 366.9313,455.7902 355.2,464.8795 C331.7375,483.0583 305.375,508.5983 292.53,538.6883 C228.51,688.6983 264.49,744.9883 292.53,905.6483 C296.27,927.0783 307.31,949.2283 316.69,965.0883" fill="none" id="flask_app_node-network" style="stroke:#181818;stroke-width:1;"/></g><!--link qdrant to host_vectors--><g class="link" data-entity-1="qdrant" data-entity-2="host_vectors" data-source-line="51" data-uid="lnk28" id="link_qdrant_host_vectors"><path d="M451.26,866.0183 C460.84,893.5983 472.7884,927.9815 482.0084,954.4815" fill="none" id="qdrant-to-host_vectors" style="stroke:#181818;stroke-width:1;stroke-dasharray:7.0,7.0;"/><polygon fill="#181818" points="483.98,960.1483,484.8004,950.3337,482.337,955.4259,477.2447,952.9625,483.98,960.1483" style="stroke:#181818;stroke-width:1;"/><text fill="#000000" font-family="sans-serif" font-size="13" lengthAdjust="spacing" textLength="161.605" x="474.34" y="927.2166">&#171;mount&#187; /qdrant/storage</text></g><!--link mlflow_server to host_mlflow_artifacts--><g class="link" data-entity-1="mlflow_server" data-entity-2="host_mlflow_artifacts" data-source-line="52" data-uid="lnk29" id="link_mlflow_server_host_mlflow_artifacts"><path d="M847.97,665.8083 C831.66,680.6283 810.16,697.0483 787.53,705.6683 C761.52,715.5783 684.9,697.1083 662.53,713.6683 C633.49,735.1683 623.9652,771.7786 620.3052,799.8686" fill="none" id="mlflow_server-to-host_mlflow_artifacts" style="stroke:#181818;stroke-width:1;stroke-dasharray:7.0,7.0;"/><polygon fill="#181818" points="619.53,805.8183,624.6593,797.4105,620.176,800.8602,616.7264,796.3769,619.53,805.8183" style="stroke:#181818;stroke-width:1;"/><text fill="#000000" font-family="sans-serif" font-size="13" lengthAdjust="spacing" textLength="166.1499" x="663.53" y="727.2366">&#171;mount&#187; /mlflow/artifacts</text></g><!--link mlflow_server to host_mlflow_backend--><g class="link" data-entity-1="mlflow_server" data-entity-2="host_mlflow_backend" data-source-line="53" data-uid="lnk30" id="link_mlflow_server_host_mlflow_backend"><path d="M864.4,666.1183 C848.12,704.5083 822.9435,763.8349 807.4235,800.4149" fill="none" id="mlflow_server-to-host_mlflow_backend" style="stroke:#181818;stroke-width:1;stroke-dasharray:7.0,7.0;"/><polygon fill="#181818" points="805.08,805.9383,812.2775,799.2154,807.0329,801.3354,804.9129,796.0908,805.08,805.9383" style="stroke:#181818;stroke-width:1;"/><text fill="#000000" font-family="sans-serif" font-size="13" lengthAdjust="spacing" textLength="168.0352" x="844.05" y="727.2366">&#171;mount&#187; /mlflow/backend</text></g><!--link mlflow_server to host_models--><g class="link" data-entity-1="mlflow_server" data-entity-2="host_models" data-source-line="54" data-uid="lnk31" id="link_mlflow_server_host_models"><path d="M963.32,663.5583 C1036.17,686.2383 1143.98,716.5083 1240.53,730.6683 C1253.45,732.5683 1465.52,730.2683 1475.53,738.6683 C1483.6225,745.4583 1488.9431,754.6289 1492.3661,764.5972 C1492.794,765.8432 1493.1922,767.1017 1493.5625,768.3696 C1493.7476,769.0035 1493.9258,769.6398 1494.0971,770.278 C1494.1828,770.5972 1492.772,765.1059 1492.8543,765.426" fill="none" id="mlflow_server-to-host_models" style="stroke:#181818;stroke-width:1;stroke-dasharray:7.0,7.0;"/><polygon fill="#181818" points="1494.3492,771.2368,1495.9808,761.5241,1493.1035,766.3945,1488.2331,763.5171,1494.3492,771.2368" style="stroke:#181818;stroke-width:1;"/><text fill="#000000" font-family="sans-serif" font-size="13" lengthAdjust="spacing" textLength="111.6045" x="1241.53" y="727.2366">&#171;mount&#187; /models</text></g><!--link flask_app to host_flask_app--><g class="link" data-entity-1="flask_app" data-entity-2="host_flask_app" data-source-line="55" data-uid="lnk32" id="link_flask_app_host_flask_app"><path d="M570.06,466.1483 C590.15,478.5483 610.9,494.5083 625.53,513.6883 C646.44,541.1083 655.35,574.2891 659.91,600.1991" fill="none" id="flask_app-to-host_flask_app" style="stroke:#181818;stroke-width:1;stroke-dasharray:7.0,7.0;"/><polygon fill="#181818" points="660.95,606.1083,663.3295,596.5512,660.0834,601.184,655.4506,597.9378,660.95,606.1083" style="stroke:#181818;stroke-width:1;"/><text fill="#000000" font-family="sans-serif" font-size="13" lengthAdjust="spacing" textLength="89.2163" x="635.85" y="527.2566">&#171;mount&#187; /app</text></g><!--link flask_app to host_pdfs--><g class="link" data-entity-1="flask_app" data-entity-2="host_pdfs" data-source-line="56" data-uid="lnk33" id="link_flask_app_host_pdfs"><path d="M480.4,466.0583 C467.08,480.0183 449.84,495.6083 431.53,505.6883 C419.07,512.5583 410.56,503.5983 400.53,513.6883 C376.34,538.0483 370.8785,572.8312 370.0285,599.8712" fill="none" id="flask_app-to-host_pdfs" style="stroke:#181818;stroke-width:1;stroke-dasharray:7.0,7.0;"/><polygon fill="#181818" points="369.84,605.8683,374.1208,596.9984,369.9971,600.8707,366.1247,596.747,369.84,605.8683" style="stroke:#181818;stroke-width:1;"/><text fill="#000000" font-family="sans-serif" font-size="13" lengthAdjust="spacing" textLength="93.0757" x="401.53" y="527.2566">&#171;mount&#187; /data</text></g><!--link flask_app to host_app--><g class="link" data-entity-1="flask_app" data-entity-2="host_app" data-source-line="57" data-uid="lnk34" id="link_flask_app_host_app"><path d="M505.07,466.1383 C504.47,480.5783 503.83,498.0183 503.53,513.6883 C503.39,521.2483 502.95,523.1583 503.53,530.6883 C505.52,556.3683 509.1873,579.4386 512.9973,600.0086" fill="none" id="flask_app-to-host_app" style="stroke:#181818;stroke-width:1;stroke-dasharray:7.0,7.0;"/><polygon fill="#181818" points="514.09,605.9083,516.384,596.3303,513.1794,600.9919,508.5178,597.7873,514.09,605.9083" style="stroke:#181818;stroke-width:1;"/><text fill="#000000" font-family="sans-serif" font-size="13" lengthAdjust="spacing" textLength="116.3208" x="504.53" y="527.2566">&#171;mount&#187; /rag_app</text></g><!--link flask_app to host_models--><g class="link" data-entity-1="flask_app" data-entity-2="host_models" data-source-line="58" data-uid="lnk35" id="link_flask_app_host_models"><path d="M577.59,447.5483 C655.9,461.6183 785.39,486.2483 895.53,513.6883 C1029.67,547.1183 1386.67,632.7583 1475.53,738.6683 C1482.32,746.7608 1486.9794,756.5927 1490.1456,766.8177 C1490.5414,768.0958 1490.9139,769.38 1491.2642,770.6678 C1491.308,770.8288 1489.8003,765.1938 1489.8434,765.3549" fill="none" id="flask_app-to-host_models" style="stroke:#181818;stroke-width:1;stroke-dasharray:7.0,7.0;"/><polygon fill="#181818" points="1491.3946,771.1509,1492.9319,761.4228,1490.102,766.3209,1485.2038,763.491,1491.3946,771.1509" style="stroke:#181818;stroke-width:1;"/><text fill="#000000" font-family="sans-serif" font-size="13" lengthAdjust="spacing" textLength="111.6045" x="1437.65" y="639.2466">&#171;mount&#187; /models</text></g><!--link GMN36 to macmini--><g class="link" data-entity-1="GMN36" data-entity-2="macmini" data-source-line="62" data-uid="lnk38" id="link_GMN36_macmini"><path d="M225.27,232.0983 C229.475,232.0983 233.68,232.0983 237.885,232.0983 C239.9875,232.0983 242.09,232.0983 244.1925,232.0983 C245.2438,232.0983 246.295,232.0983 247.3463,232.0983 C247.8719,232.0983 248.3975,232.0983 248.9231,232.0983 C249.0545,232.0983 249.1859,232.0983 249.3173,232.0983 C249.383,232.0983 249.4488,232.0983 249.5145,232.0983" fill="none" id="GMN36-macmini" style="stroke:#181818;stroke-width:1;stroke-dasharray:7.0,7.0;"/></g><!--SRC=[XLN1JXin4BtlLuno0QIQf41fbGCI9QLK8bLQABrKYfnTRxB2Qo-sGueglgYVq1jVrXbxOtOteRr4tfdtdksPvuahd1HmgLCkuUlfHxXwi4wKC1ALr0-bK0v61PyRNYR93aRpGWbm2m5BAqp2KwSDVADbErloGa6rUB05wIgTYI6CUJekL97G5_JgBzWT7y34wBqUS8kqjAJWhoG1s84BRHtaXHGs78eRL-IufuLLuHQG2SSBQH6wJa0luuxtgootFzJkP7GELtX0FXT1Ve5wKqfkKku5NOLODtwrXLX3MjnIvbAl-l5Wo1_ZzIIShYCDWG2UHl0sfHbFRuNAKEVQuB9GSnYztzIeOMq5sjWseFuRQmdGX8bo9h8CXVjSIaOzk1oposDsV-2fCHtu7R8HXgjROVgbPIKtgOu2B2giCLi5f2pxKlAIimFsTiRI1NVixcWws9_Fbxcd-spaFhQkoAiAAqCsFSDyeooOQ05poUqj2_1pMdS97k1ftcaDwuuqbjQ04cwbpIrcKwcN6LwTpraTz39hGE07KgeLMb89KpiqrMMb5JuYwdNmVN0HosPU97nDirdTfaY0tfSCo-YU3RcsmPsF-z94qU2Ay8I2GNnyGtDyIKcu4kPU69Js2-lVlRVjNbF2UbHxerXN3un5V66xKFbJtuNlOWQVb1C66rGtuha7jCSZZP0phHHUjz3A9ZHMWB6JE1M6qBkulfx0ky5Wq4lMKK9q3eB0N9iLDva5fsjyn0JDvXsZyfkWtCeHEjISODTd4pW-F3piDKxRR3jkHoPQc-Evlup5OBD5ZN3d4eqCRdMZvRB4kQgNPARwFFlx9wtHH0Ty-kqnJt-W7r1z6oPPzrwHt1rB7PNkYFkVJZsQjglKoPSrmipgSCDWQtGmufz3RGevT1kUXdy7IkD_AtPJ5SiuVKdvdoV71dxMJW2VwQM3IXlieQA05Ba3dQyjZW_XmyzAMv71X413333lto74n-HZwDJN-9SQtlDkoIjlFVBldi-JHr_Hxz4GmYH9g2cqQV8N]--></g></svg>